<svg xmlns="http://www.w3.org/2000/svg" width="71" height="24" viewBox="0 0 71 24" fill="none">
  <path
    d="M7.80353 2.08163C10.7674 2.08163 13.0681 2.69388 14.7055 3.91837C16.3636 5.12245 17.1926 6.89796 17.1926 9.2449C17.1926 11.6735 16.405 13.5306 14.8298 14.8163C13.2753 16.102 11.1716 16.7449 8.51859 16.7449H6.40449V23.3878H0V2.08163H7.80353ZM7.8968 12.3061C9.74145 12.3061 10.6638 11.2857 10.6638 9.2449C10.6638 7.38776 9.67927 6.45918 7.71026 6.45918H6.40449V12.3061H7.8968Z"
    fill="#fff"
  ></path>
  <path
    d="M23.2726 24C21.5938 24 20.2984 23.5408 19.3864 22.6224C18.4952 21.6837 18.0495 20.3673 18.0495 18.6735V0.612246L24.2053 0V18.4286C24.2053 18.9796 24.454 19.2551 24.9515 19.2551C25.1795 19.2551 25.3971 19.2143 25.6043 19.1327L26.6925 23.449C25.7183 23.8163 24.5784 24 23.2726 24Z"
    fill="#fff"
  ></path>
  <path
    d="M41.2712 18.0918C41.2712 18.6633 41.3437 19.0918 41.4888 19.3776C41.6339 19.6429 41.8929 19.8469 42.266 19.9898L41.0224 23.8776C39.9032 23.7959 38.9912 23.5918 38.2865 23.2653C37.5818 22.9184 37.0015 22.3673 36.5455 21.6122C35.4677 23.2041 33.7993 24 31.5401 24C29.9027 24 28.5762 23.5204 27.5606 22.5612C26.5657 21.5816 26.0683 20.3265 26.0683 18.7959C26.0683 16.9796 26.7522 15.5918 28.1202 14.6327C29.4881 13.6735 31.4779 13.1939 34.0894 13.1939H35.2708V12.7959C35.2708 11.9796 35.105 11.4286 34.7734 11.1429C34.4418 10.8571 33.8096 10.7143 32.8769 10.7143C32.3795 10.7143 31.737 10.7959 30.9494 10.9592C30.1825 11.102 29.3949 11.3061 28.5865 11.5714L27.2497 7.71429C28.2653 7.30612 29.3638 6.9898 30.5452 6.76531C31.7473 6.54082 32.8355 6.42857 33.8096 6.42857C36.4212 6.42857 38.3176 6.92857 39.499 7.92857C40.6804 8.90816 41.2712 10.4184 41.2712 12.4592V18.0918ZM33.4365 19.7449C33.8096 19.7449 34.1516 19.6531 34.4625 19.4694C34.7941 19.2857 35.0636 19.051 35.2708 18.7653V16.3469H34.6179C33.7474 16.3469 33.1049 16.5 32.6904 16.8061C32.2759 17.1122 32.0686 17.5816 32.0686 18.2143C32.0686 18.6837 32.1929 19.0612 32.4417 19.3469C32.6904 19.6122 33.022 19.7449 33.4365 19.7449Z"
    fill="#fff"
  ></path>
  <path
    d="M55.1926 22.5918C54.55 23.0408 53.7624 23.3878 52.8297 23.6327C51.9178 23.8776 51.0473 24 50.2182 24C48.1663 23.9796 46.6429 23.4184 45.648 22.3163C44.6739 21.1939 44.1868 19.5408 44.1868 17.3571V11.1429H42.197V7.04082H44.1868V3.61225L50.3426 2.90816V7.04082H54.0733L53.4515 11.1429H50.3426V17.2959C50.3426 18.0102 50.4566 18.5204 50.6845 18.8265C50.9125 19.1122 51.2338 19.2551 51.6483 19.2551C52.1665 19.2551 52.6847 19.1122 53.2028 18.8265L55.1926 22.5918Z"
    fill="#fff"
  ></path>
  <path
    d="M65.6501 6.52041C66.189 6.52041 66.7486 6.61225 67.329 6.79592L66.3652 12.6429C65.8056 12.4796 65.2978 12.398 64.8418 12.398C63.9298 12.398 63.2459 12.6939 62.7899 13.2857C62.3546 13.8776 62.0023 14.7653 61.7328 15.949V23.3878H55.577V7.04082H60.9556L61.453 10.102C61.8054 9.02041 62.365 8.15306 63.1319 7.5C63.8987 6.84694 64.7382 6.52041 65.6501 6.52041Z"
    fill="#fff"
  ></path>
  <path
    d="M67.7978 17.6939C68.689 17.6939 69.4455 18.0102 70.0673 18.6429C70.6891 19.2551 71 19.9898 71 20.8469C71 21.7041 70.6891 22.449 70.0673 23.0816C69.4455 23.6939 68.689 24 67.7978 24C66.9065 24 66.15 23.6939 65.5282 23.0816C64.9064 22.449 64.5955 21.7041 64.5955 20.8469C64.5955 19.9898 64.9064 19.2551 65.5282 18.6429C66.15 18.0102 66.9065 17.6939 67.7978 17.6939Z"
    fill="#fff"
  ></path>
</svg>
